<?xml version="1.0"?>
<svg xmlns="http://www.w3.org/2000/svg" viewBox="0 0 64 64" width="512" height="512"><g id="Delivery"><path d="M56,28.08V25.569a4.59,4.59,0,0,0,2-3.8V14a1,1,0,0,0,1-1V11a9,9,0,0,0-18,0v1H36a1,1,0,0,0,0,2h6v5a7.011,7.011,0,0,0,6,6.929V28H47a7.008,7.008,0,0,0-7,7v7H38V21a1,1,0,0,0-1-1H9a1,1,0,0,0-1,1V45a1,1,0,0,0,1,1h9.1A5.009,5.009,0,0,0,23,50h3v3a1,1,0,0,0,1,1h6a1,1,0,0,0,1-1V52h6v9a1,1,0,0,0,1,1H61a1,1,0,0,0,1-1V35A7.006,7.006,0,0,0,56,28.08ZM43,11a7,7,0,0,1,14,0v1H43Zm8,13H49a5.006,5.006,0,0,1-5-5V14H56v7.764a2.6,2.6,0,0,1-1.447,2.341A1,1,0,0,0,54,25v3H50V26h1a1,1,0,0,0,0-2ZM25,22v7.131l-1.445-.963a1,1,0,0,0-1.11,0L21,29.131V22ZM10,22h9v9a1,1,0,0,0,1.555.832L23,30.2l2.445,1.63A1,1,0,0,0,27,31V22h9V42H34V41a1,1,0,0,0-1-1H27a1,1,0,0,0-1,1v3H10ZM23,48a3.006,3.006,0,0,1-2.829-2H26v2Zm9,4H28V42h4Zm2-8H45a3,3,0,0,0,3-3V37a3,3,0,0,1,6,0v6a7.008,7.008,0,0,1-7,7H34Zm13,8a9.01,9.01,0,0,0,9-9V37a5,5,0,0,0-10,0v4a1,1,0,0,1-1,1H42V35a5.006,5.006,0,0,1,5-5h8a5.006,5.006,0,0,1,5,5V56H42V52Zm13,8H42V58H60Z"/></g></svg>
